<svg xmlns="http://www.w3.org/2000/svg" xmlns:xlink="http://www.w3.org/1999/xlink" width="500" zoomAndPan="magnify" viewBox="0 0 375 374.999991" height="500" preserveAspectRatio="xMidYMid meet" version="1.0"><defs><clipPath id="06097a9721"><path d="M 19 7 L 221 7 L 221 195 L 19 195 Z M 19 7 " clip-rule="nonzero"/></clipPath><clipPath id="a4898e0c06"><path d="M -12.644531 65.699219 L 225.542969 -90.796875 L 387.390625 155.542969 L 149.203125 312.039062 Z M -12.644531 65.699219 " clip-rule="nonzero"/></clipPath><clipPath id="f4fa48ba76"><path d="M -12.644531 65.699219 L 225.542969 -90.796875 L 387.390625 155.542969 L 149.203125 312.039062 Z M -12.644531 65.699219 " clip-rule="nonzero"/></clipPath><clipPath id="a6ccaf5093"><path d="M -12.644531 65.699219 L 225.542969 -90.796875 L 387.390625 155.542969 L 149.203125 312.039062 Z M -12.644531 65.699219 " clip-rule="nonzero"/></clipPath><clipPath id="e62fd31bbd"><path d="M 29 15 L 155 15 L 155 103 L 29 103 Z M 29 15 " clip-rule="nonzero"/></clipPath><clipPath id="b7ecf69dde"><path d="M -12.644531 65.699219 L 225.542969 -90.796875 L 387.390625 155.542969 L 149.203125 312.039062 Z M -12.644531 65.699219 " clip-rule="nonzero"/></clipPath><clipPath id="f409a18e3a"><path d="M -12.644531 65.699219 L 225.542969 -90.796875 L 387.390625 155.542969 L 149.203125 312.039062 Z M -12.644531 65.699219 " clip-rule="nonzero"/></clipPath><clipPath id="0eb3448d08"><path d="M -12.644531 65.699219 L 225.542969 -90.796875 L 387.390625 155.542969 L 149.203125 312.039062 Z M -12.644531 65.699219 " clip-rule="nonzero"/></clipPath><clipPath id="bd3a1823ad"><path d="M 30 105 L 164 105 L 164 187 L 30 187 Z M 30 105 " clip-rule="nonzero"/></clipPath><clipPath id="4e3f322dc8"><path d="M -12.644531 65.699219 L 225.542969 -90.796875 L 387.390625 155.542969 L 149.203125 312.039062 Z M -12.644531 65.699219 " clip-rule="nonzero"/></clipPath><clipPath id="355e558750"><path d="M -12.644531 65.699219 L 225.542969 -90.796875 L 387.390625 155.542969 L 149.203125 312.039062 Z M -12.644531 65.699219 " clip-rule="nonzero"/></clipPath><clipPath id="50b8d42088"><path d="M -12.644531 65.699219 L 225.542969 -90.796875 L 387.390625 155.542969 L 149.203125 312.039062 Z M -12.644531 65.699219 " clip-rule="nonzero"/></clipPath><clipPath id="4042851d5e"><path d="M 127 23 L 213 23 L 213 172 L 127 172 Z M 127 23 " clip-rule="nonzero"/></clipPath><clipPath id="61a177d562"><path d="M -12.644531 65.699219 L 225.542969 -90.796875 L 387.390625 155.542969 L 149.203125 312.039062 Z M -12.644531 65.699219 " clip-rule="nonzero"/></clipPath><clipPath id="a3c4b19611"><path d="M -12.644531 65.699219 L 225.542969 -90.796875 L 387.390625 155.542969 L 149.203125 312.039062 Z M -12.644531 65.699219 " clip-rule="nonzero"/></clipPath><clipPath id="5480a89f70"><path d="M -12.644531 65.699219 L 225.542969 -90.796875 L 387.390625 155.542969 L 149.203125 312.039062 Z M -12.644531 65.699219 " clip-rule="nonzero"/></clipPath><clipPath id="e118a3040a"><path d="M 151 27 L 346 27 L 346 227 L 151 227 Z M 151 27 " clip-rule="nonzero"/></clipPath><clipPath id="919c6ba6b6"><path d="M -12.644531 65.699219 L 225.542969 -90.796875 L 387.390625 155.542969 L 149.203125 312.039062 Z M -12.644531 65.699219 " clip-rule="nonzero"/></clipPath><clipPath id="0e0bbe7b71"><path d="M -12.644531 65.699219 L 225.542969 -90.796875 L 387.390625 155.542969 L 149.203125 312.039062 Z M -12.644531 65.699219 " clip-rule="nonzero"/></clipPath><clipPath id="3c4c6e4e35"><path d="M -12.644531 65.699219 L 225.542969 -90.796875 L 387.390625 155.542969 L 149.203125 312.039062 Z M -12.644531 65.699219 " clip-rule="nonzero"/></clipPath><clipPath id="cdfec028d1"><path d="M 235 103 L 338 103 L 338 217 L 235 217 Z M 235 103 " clip-rule="nonzero"/></clipPath><clipPath id="9566d11748"><path d="M -12.644531 65.699219 L 225.542969 -90.796875 L 387.390625 155.542969 L 149.203125 312.039062 Z M -12.644531 65.699219 " clip-rule="nonzero"/></clipPath><clipPath id="837effefab"><path d="M -12.644531 65.699219 L 225.542969 -90.796875 L 387.390625 155.542969 L 149.203125 312.039062 Z M -12.644531 65.699219 " clip-rule="nonzero"/></clipPath><clipPath id="2f96bac4da"><path d="M -12.644531 65.699219 L 225.542969 -90.796875 L 387.390625 155.542969 L 149.203125 312.039062 Z M -12.644531 65.699219 " clip-rule="nonzero"/></clipPath><clipPath id="b26ea3d395"><path d="M 158 71 L 243 71 L 243 213 L 158 213 Z M 158 71 " clip-rule="nonzero"/></clipPath><clipPath id="0c806101cb"><path d="M -12.644531 65.699219 L 225.542969 -90.796875 L 387.390625 155.542969 L 149.203125 312.039062 Z M -12.644531 65.699219 " clip-rule="nonzero"/></clipPath><clipPath id="da1618e637"><path d="M -12.644531 65.699219 L 225.542969 -90.796875 L 387.390625 155.542969 L 149.203125 312.039062 Z M -12.644531 65.699219 " clip-rule="nonzero"/></clipPath><clipPath id="8c3b01487e"><path d="M -12.644531 65.699219 L 225.542969 -90.796875 L 387.390625 155.542969 L 149.203125 312.039062 Z M -12.644531 65.699219 " clip-rule="nonzero"/></clipPath><clipPath id="4285c7394b"><path d="M 186 34 L 332 34 L 332 120 L 186 120 Z M 186 34 " clip-rule="nonzero"/></clipPath><clipPath id="5791106fc2"><path d="M -12.644531 65.699219 L 225.542969 -90.796875 L 387.390625 155.542969 L 149.203125 312.039062 Z M -12.644531 65.699219 " clip-rule="nonzero"/></clipPath><clipPath id="ad34b745c4"><path d="M -12.644531 65.699219 L 225.542969 -90.796875 L 387.390625 155.542969 L 149.203125 312.039062 Z M -12.644531 65.699219 " clip-rule="nonzero"/></clipPath><clipPath id="7943e6224e"><path d="M -12.644531 65.699219 L 225.542969 -90.796875 L 387.390625 155.542969 L 149.203125 312.039062 Z M -12.644531 65.699219 " clip-rule="nonzero"/></clipPath></defs><g clip-path="url(#06097a9721)"><g clip-path="url(#a4898e0c06)"><g clip-path="url(#f4fa48ba76)"><g clip-path="url(#a6ccaf5093)"><path fill="#000000" d="M 22.117188 92.214844 L 54.527344 27.777344 C 59.140625 18.535156 68.363281 12.472656 78.730469 11.875 L 150.738281 7.707031 C 161.054688 7.140625 170.914062 12.042969 176.582031 20.675781 L 216.148438 80.894531 C 221.820312 89.523438 222.488281 100.535156 217.792969 109.761719 L 185.378906 174.199219 C 180.765625 183.445312 171.542969 189.503906 161.175781 190.101562 L 89.167969 194.269531 C 78.835938 194.917969 69.027344 189.984375 63.355469 181.351562 L 23.757812 121.085938 C 18.085938 112.453125 17.453125 101.492188 22.117188 92.214844 Z M 22.117188 92.214844 " fill-opacity="1" fill-rule="nonzero"/></g></g></g></g><g clip-path="url(#e62fd31bbd)"><g clip-path="url(#b7ecf69dde)"><g clip-path="url(#f409a18e3a)"><g clip-path="url(#0eb3448d08)"><path fill="#ffffff" d="M 153.652344 25.96875 C 156.824219 19.625 153.652344 14.800781 146.605469 15.238281 L 79.457031 19.148438 C 72.378906 19.539062 64.035156 25.023438 60.863281 31.363281 L 30.621094 91.445312 C 27.453125 97.785156 30.625 102.613281 37.667969 102.171875 L 104.867188 98.230469 C 111.996094 97.808594 120.257812 92.308594 123.457031 86.015625 Z M 120.375 34.007812 C 122.90625 28.925781 129.589844 24.535156 135.257812 24.230469 C 140.925781 23.925781 143.425781 27.730469 140.898438 32.8125 C 138.367188 37.894531 131.683594 42.289062 126.015625 42.589844 C 120.347656 42.894531 117.847656 39.089844 120.375 34.007812 Z M 67.347656 37.085938 C 69.878906 32.003906 76.5625 27.613281 82.230469 27.308594 C 87.898438 27.003906 90.429688 30.855469 87.871094 35.890625 C 85.339844 40.972656 78.65625 45.363281 72.988281 45.667969 C 67.351562 46.019531 64.820312 42.167969 67.347656 37.085938 Z M 64.046875 83.304688 C 61.515625 88.386719 54.832031 92.78125 49.164062 93.085938 C 43.492188 93.386719 40.964844 89.535156 43.523438 84.503906 C 46.054688 79.421875 52.738281 75.027344 58.40625 74.722656 C 64.074219 74.421875 66.574219 78.222656 64.046875 83.304688 Z M 81.925781 59.273438 C 84.453125 54.191406 91.140625 49.796875 96.808594 49.492188 C 102.476562 49.191406 105.007812 53.042969 102.445312 58.074219 C 99.917969 63.15625 93.234375 67.550781 87.5625 67.855469 C 81.894531 68.15625 79.398438 64.355469 81.925781 59.273438 Z M 117.070312 80.230469 C 114.542969 85.3125 107.859375 89.703125 102.191406 90.007812 C 96.519531 90.3125 93.988281 86.460938 96.550781 81.425781 C 99.082031 76.34375 105.765625 71.953125 111.433594 71.648438 C 117.070312 71.296875 119.601562 75.148438 117.070312 80.230469 Z M 117.070312 80.230469 " fill-opacity="1" fill-rule="nonzero"/></g></g></g></g><g clip-path="url(#bd3a1823ad)"><g clip-path="url(#4e3f322dc8)"><g clip-path="url(#355e558750)"><g clip-path="url(#50b8d42088)"><path fill="#ffffff" d="M 104.996094 105.125 L 37.796875 109.066406 C 30.71875 109.460938 28.125 114.65625 32.003906 120.554688 L 68.941406 176.777344 C 72.816406 182.675781 81.789062 187.183594 88.832031 186.742188 L 156.03125 182.800781 C 163.160156 182.378906 165.703125 177.214844 161.828125 171.316406 L 124.890625 115.09375 C 121.011719 109.195312 112.042969 104.6875 104.996094 105.125 Z M 61.535156 133.820312 C 55.867188 134.125 48.722656 130.582031 45.613281 125.851562 C 42.503906 121.125 44.542969 116.992188 50.257812 116.65625 C 55.929688 116.351562 63.074219 119.894531 66.183594 124.625 C 69.242188 129.386719 67.207031 133.515625 61.535156 133.820312 Z M 143.652344 175.019531 C 137.984375 175.324219 130.835938 171.78125 127.730469 167.050781 C 124.621094 162.320312 126.660156 158.191406 132.375 157.855469 C 138.042969 157.550781 145.191406 161.09375 148.300781 165.824219 C 151.359375 170.585938 149.320312 174.714844 143.652344 175.019531 Z M 143.652344 175.019531 " fill-opacity="1" fill-rule="nonzero"/></g></g></g></g><g clip-path="url(#4042851d5e)"><g clip-path="url(#61a177d562)"><g clip-path="url(#a3c4b19611)"><g clip-path="url(#5480a89f70)"><path fill="#ffffff" d="M 159.851562 28.804688 L 129.605469 88.886719 C 126.4375 95.226562 127.03125 105.171875 130.90625 111.070312 L 167.8125 167.242188 C 171.691406 173.140625 177.488281 172.824219 180.609375 166.515625 L 210.851562 106.433594 C 214.070312 100.0625 213.476562 90.117188 209.601562 84.21875 L 172.695312 28.046875 C 168.816406 22.148438 163.050781 22.515625 159.851562 28.804688 Z M 178.492188 152.128906 C 175.964844 157.210938 171.363281 157.441406 168.257812 152.710938 C 165.148438 147.980469 164.6875 140.046875 167.214844 134.964844 C 169.746094 129.882812 174.34375 129.652344 177.453125 134.382812 C 180.558594 139.113281 181.054688 147.09375 178.492188 152.128906 Z M 175.917969 106.210938 C 173.386719 111.292969 168.789062 111.523438 165.679688 106.792969 C 162.574219 102.0625 162.078125 94.078125 164.640625 89.046875 C 167.167969 83.964844 171.769531 83.734375 174.875 88.464844 C 177.984375 93.195312 178.476562 101.175781 175.917969 106.210938 Z M 173.246094 60.355469 C 170.714844 65.4375 166.066406 65.699219 162.960938 60.96875 C 159.851562 56.242188 159.359375 48.257812 161.96875 43.191406 C 164.496094 38.109375 169.144531 37.847656 172.253906 42.578125 C 175.359375 47.308594 175.855469 55.289062 173.246094 60.355469 Z M 173.246094 60.355469 " fill-opacity="1" fill-rule="nonzero"/></g></g></g></g><g clip-path="url(#e118a3040a)"><g clip-path="url(#919c6ba6b6)"><g clip-path="url(#0e0bbe7b71)"><g clip-path="url(#3c4c6e4e35)"><path fill="#000000" d="M 336.25 82.617188 L 282.414062 34.703125 C 274.691406 27.839844 263.910156 25.570312 254.125 28.859375 L 185.660156 51.5 C 175.84375 54.742188 168.53125 62.964844 166.386719 73.097656 L 151.757812 143.65625 C 149.664062 153.757812 153.136719 164.25 160.859375 171.113281 L 214.691406 219.027344 C 222.414062 225.890625 233.199219 228.160156 242.984375 224.871094 L 311.445312 202.230469 C 321.265625 198.988281 328.574219 190.765625 330.71875 180.632812 L 345.367188 109.996094 C 347.410156 99.925781 343.972656 89.480469 336.25 82.617188 Z M 336.25 82.617188 " fill-opacity="1" fill-rule="nonzero"/></g></g></g></g><g clip-path="url(#cdfec028d1)"><g clip-path="url(#9566d11748)"><g clip-path="url(#837effefab)"><g clip-path="url(#2f96bac4da)"><path fill="#ffffff" d="M 249.136719 141.734375 L 235.480469 207.601562 C 234.039062 214.554688 238.300781 218.382812 245.085938 216.160156 L 308.972656 195.058594 C 315.671875 192.820312 322.363281 185.351562 323.757812 178.433594 L 337.414062 112.566406 C 338.855469 105.617188 334.542969 101.816406 327.808594 104.007812 L 263.921875 125.109375 C 257.21875 127.347656 250.527344 134.816406 249.136719 141.734375 Z M 296.507812 180.980469 C 297.664062 175.402344 302.984375 169.464844 308.371094 167.667969 C 313.757812 165.875 317.167969 168.941406 316.0625 174.484375 C 314.953125 180.027344 309.585938 186 304.199219 187.792969 C 298.808594 189.589844 295.351562 186.554688 296.507812 180.980469 Z M 301.902344 154.957031 C 303.058594 149.378906 308.378906 143.441406 313.765625 141.644531 C 319.15625 139.851562 322.566406 142.914062 321.457031 148.460938 C 320.300781 154.035156 314.980469 159.976562 309.59375 161.769531 C 304.15625 163.597656 300.746094 160.53125 301.902344 154.957031 Z M 307.300781 128.929688 C 308.457031 123.355469 313.777344 117.417969 319.164062 115.621094 C 324.550781 113.828125 328.011719 116.859375 326.855469 122.4375 C 325.699219 128.011719 320.378906 133.953125 314.992188 135.746094 C 309.601562 137.539062 306.144531 134.507812 307.300781 128.929688 Z M 246.054688 197.652344 C 247.210938 192.074219 252.53125 186.136719 257.917969 184.34375 C 263.308594 182.546875 266.71875 185.613281 265.609375 191.15625 C 264.503906 196.703125 259.132812 202.671875 253.746094 204.464844 C 248.359375 206.261719 244.867188 203.179688 246.054688 197.652344 Z M 251.402344 171.660156 C 252.558594 166.082031 257.878906 160.144531 263.265625 158.351562 C 268.65625 156.554688 272.066406 159.621094 270.957031 165.164062 C 269.800781 170.742188 264.480469 176.679688 259.09375 178.472656 C 253.707031 180.269531 250.296875 177.203125 251.402344 171.660156 Z M 256.847656 145.605469 C 258.003906 140.027344 263.324219 134.089844 268.710938 132.292969 C 274.097656 130.5 277.511719 133.566406 276.402344 139.109375 C 275.296875 144.652344 269.925781 150.625 264.539062 152.417969 C 259.101562 154.246094 255.691406 151.179688 256.847656 145.605469 Z M 256.847656 145.605469 " fill-opacity="1" fill-rule="nonzero"/></g></g></g></g><g clip-path="url(#b26ea3d395)"><g clip-path="url(#0c806101cb)"><g clip-path="url(#da1618e637)"><g clip-path="url(#8c3b01487e)"><path fill="#ffffff" d="M 172.648438 78.480469 L 158.988281 144.347656 C 157.546875 151.296875 160.6875 160.753906 165.949219 165.464844 L 216.195312 210.152344 C 221.457031 214.863281 226.941406 213.003906 228.414062 206.101562 L 242.074219 140.234375 C 243.511719 133.28125 240.375 123.828125 235.113281 119.117188 L 184.914062 74.398438 C 179.558594 69.75 174.089844 71.53125 172.648438 78.480469 Z M 207.300781 179.066406 C 208.457031 173.488281 212.835938 172.078125 217.035156 175.8125 C 221.265625 179.59375 223.789062 187.152344 222.601562 192.679688 C 221.441406 198.253906 217.0625 199.667969 212.863281 195.933594 C 208.664062 192.203125 206.140625 184.644531 207.300781 179.066406 Z M 218.074219 127.097656 C 219.230469 121.523438 223.613281 120.109375 227.84375 123.890625 C 232.074219 127.675781 234.59375 135.234375 233.40625 140.761719 C 232.25 146.335938 227.871094 147.75 223.671875 144.015625 C 219.4375 140.234375 216.917969 132.675781 218.074219 127.097656 Z M 167.65625 143.820312 C 168.8125 138.246094 173.191406 136.832031 177.425781 140.613281 C 181.65625 144.394531 184.175781 151.953125 183.019531 157.53125 C 181.863281 163.105469 177.484375 164.519531 173.25 160.738281 C 169.019531 156.957031 166.546875 149.367188 167.65625 143.820312 Z M 178.429688 91.855469 C 179.585938 86.277344 183.96875 84.863281 188.199219 88.648438 C 192.429688 92.429688 194.953125 99.988281 193.796875 105.5625 C 192.640625 111.140625 188.257812 112.554688 184.027344 108.769531 C 179.796875 104.988281 177.324219 97.398438 178.429688 91.855469 Z M 178.429688 91.855469 " fill-opacity="1" fill-rule="nonzero"/></g></g></g></g><g clip-path="url(#4285c7394b)"><g clip-path="url(#5791106fc2)"><g clip-path="url(#ad34b745c4)"><g clip-path="url(#7943e6224e)"><path fill="#ffffff" d="M 239.746094 114.257812 C 245.007812 118.96875 254.835938 120.957031 261.570312 118.765625 L 325.472656 97.582031 C 332.175781 95.34375 333.351562 89.6875 328.089844 84.976562 L 277.808594 40.242188 C 272.550781 35.53125 262.71875 33.542969 255.984375 35.730469 L 192.128906 56.882812 C 185.429688 59.125 184.253906 64.78125 189.515625 69.492188 Z M 251.191406 70.433594 C 256.578125 68.640625 264.421875 70.261719 268.652344 74.042969 C 272.882812 77.824219 271.945312 82.351562 266.558594 84.144531 C 261.167969 85.941406 253.328125 84.320312 249.097656 80.539062 C 244.835938 76.707031 245.773438 72.179688 251.191406 70.433594 Z M 251.191406 70.433594 " fill-opacity="1" fill-rule="nonzero"/></g></g></g></g></svg>