<svg xmlns="http://www.w3.org/2000/svg" xmlns:xlink="http://www.w3.org/1999/xlink" width="500" zoomAndPan="magnify" viewBox="0 0 375 374.999991" height="500" preserveAspectRatio="xMidYMid meet" version="1.0"><defs><clipPath id="c306ce6ad0"><path d="M 61.46875 59 L 313.46875 59 L 313.46875 233 L 61.46875 233 Z M 61.46875 59 " clip-rule="nonzero"/></clipPath></defs><path fill="#000000" d="M 152.429688 48.210938 L 184.570312 75.546875 C 184.925781 75.820312 185.3125 76.03125 185.734375 76.175781 C 186.15625 76.320312 186.589844 76.390625 187.039062 76.390625 C 187.484375 76.390625 187.917969 76.320312 188.339844 76.175781 C 188.761719 76.03125 189.152344 75.820312 189.503906 75.546875 L 221.648438 48.210938 C 222.363281 47.558594 223.046875 46.875 223.691406 46.152344 C 224.335938 45.429688 224.941406 44.675781 225.511719 43.890625 C 226.078125 43.105469 226.605469 42.296875 227.089844 41.457031 C 227.570312 40.617188 228.011719 39.753906 228.40625 38.871094 C 228.800781 37.984375 229.148438 37.082031 229.449219 36.160156 C 229.75 35.242188 230.003906 34.308594 230.207031 33.359375 C 230.410156 32.414062 230.566406 31.457031 230.671875 30.496094 C 230.777344 29.53125 230.832031 28.566406 230.839844 27.597656 C 230.84375 26.628906 230.800781 25.660156 230.707031 24.695312 C 230.609375 23.730469 230.46875 22.777344 230.273438 21.824219 C 230.078125 20.875 229.839844 19.941406 229.546875 19.015625 C 229.257812 18.089844 228.917969 17.183594 228.535156 16.296875 C 228.152344 15.40625 227.722656 14.539062 227.246094 13.695312 C 226.773438 12.851562 226.257812 12.03125 225.699219 11.242188 C 225.140625 10.449219 224.542969 9.6875 223.902344 8.960938 C 223.265625 8.230469 222.59375 7.535156 221.882812 6.878906 C 221.363281 6.414062 220.824219 5.976562 220.265625 5.566406 C 219.707031 5.152344 219.128906 4.765625 218.535156 4.40625 C 217.941406 4.046875 217.332031 3.71875 216.703125 3.414062 C 216.078125 3.113281 215.441406 2.839844 214.789062 2.597656 C 214.140625 2.355469 213.480469 2.144531 212.808594 1.960938 C 212.136719 1.78125 211.460938 1.628906 210.777344 1.511719 C 210.089844 1.390625 209.402344 1.304688 208.710938 1.25 C 208.019531 1.195312 207.324219 1.171875 206.628906 1.183594 C 205.933594 1.191406 205.242188 1.234375 204.550781 1.308594 C 203.859375 1.382812 203.175781 1.488281 202.496094 1.625 C 201.8125 1.761719 201.140625 1.933594 200.476562 2.132812 C 199.808594 2.332031 199.15625 2.5625 198.511719 2.824219 C 197.867188 3.085938 197.238281 3.375 196.621094 3.695312 C 196.003906 4.015625 195.402344 4.363281 194.816406 4.738281 C 194.234375 5.113281 193.667969 5.515625 193.117188 5.941406 C 192.570312 6.371094 192.042969 6.824219 191.539062 7.300781 L 187.039062 11.4375 L 182.539062 7.300781 C 155.316406 -14.886719 128.371094 27.398438 152.429688 48.210938 Z M 156.667969 12.019531 C 157.394531 11.359375 158.171875 10.773438 159.007812 10.261719 C 159.839844 9.75 160.714844 9.320312 161.628906 8.972656 C 162.542969 8.628906 163.484375 8.371094 164.449219 8.199219 C 165.410156 8.03125 166.382812 7.953125 167.359375 7.96875 C 168.339844 7.980469 169.308594 8.085938 170.265625 8.285156 C 171.222656 8.480469 172.15625 8.765625 173.058594 9.140625 C 173.964844 9.511719 174.828125 9.964844 175.644531 10.5 C 176.464844 11.039062 177.226562 11.644531 177.929688 12.324219 L 184.734375 18.578125 C 185.050781 18.867188 185.40625 19.089844 185.800781 19.246094 C 186.199219 19.402344 186.613281 19.480469 187.039062 19.480469 C 187.464844 19.480469 187.878906 19.402344 188.273438 19.246094 C 188.671875 19.089844 189.027344 18.867188 189.34375 18.578125 L 196.144531 12.324219 C 216.265625 -3.910156 234.5 28.445312 217.238281 43.015625 L 187.039062 68.699219 L 156.835938 43.015625 C 156.304688 42.523438 155.800781 42.007812 155.320312 41.464844 C 154.84375 40.921875 154.394531 40.351562 153.972656 39.761719 C 153.550781 39.171875 153.164062 38.5625 152.804688 37.933594 C 152.445312 37.304688 152.121094 36.65625 151.828125 35.992188 C 151.535156 35.332031 151.277344 34.652344 151.054688 33.964844 C 150.832031 33.273438 150.648438 32.574219 150.496094 31.867188 C 150.34375 31.15625 150.230469 30.441406 150.152344 29.722656 C 150.074219 29 150.03125 28.277344 150.027344 27.554688 C 150.023438 26.828125 150.058594 26.105469 150.128906 25.386719 C 150.199219 24.664062 150.304688 23.949219 150.449219 23.238281 C 150.59375 22.527344 150.769531 21.824219 150.988281 21.132812 C 151.203125 20.441406 151.453125 19.761719 151.738281 19.097656 C 152.023438 18.429688 152.339844 17.777344 152.691406 17.144531 C 153.042969 16.511719 153.425781 15.898438 153.839844 15.304688 C 154.253906 14.707031 154.699219 14.136719 155.171875 13.589844 C 155.644531 13.039062 156.144531 12.515625 156.667969 12.019531 Z M 156.667969 12.019531 " fill-opacity="1" fill-rule="nonzero"/><g clip-path="url(#c306ce6ad0)"><path fill="#000000" d="M 307.898438 105.929688 L 288.042969 119.671875 C 289.222656 120.886719 260.582031 80.265625 260.167969 79.3125 L 280.023438 65.574219 C 280.382812 65.3125 280.679688 64.992188 280.917969 64.613281 C 281.152344 64.234375 281.308594 63.824219 281.382812 63.386719 C 281.457031 62.945312 281.445312 62.511719 281.351562 62.074219 C 281.253906 61.640625 281.082031 61.238281 280.828125 60.871094 C 280.574219 60.503906 280.261719 60.199219 279.890625 59.957031 C 279.515625 59.710938 279.113281 59.546875 278.675781 59.460938 C 278.238281 59.378906 277.800781 59.378906 277.363281 59.464844 C 276.925781 59.550781 276.523438 59.714844 276.152344 59.960938 L 253.496094 75.640625 C 252.722656 76.175781 252.25 76.90625 252.082031 77.832031 C 251.398438 79.835938 255.144531 83.636719 255.972656 85.226562 C 253.617188 87.351562 250.960938 88.992188 248.007812 90.144531 C 245.050781 91.296875 241.988281 91.894531 238.816406 91.925781 L 231.070312 91.679688 C 227.074219 91.558594 223.132812 91.984375 219.253906 92.957031 C 215.371094 93.933594 211.699219 95.421875 208.230469 97.417969 C 207.902344 96.773438 207.515625 96.164062 207.074219 95.589844 C 206.632812 95.015625 206.136719 94.488281 205.597656 94.007812 C 205.054688 93.527344 204.46875 93.101562 203.847656 92.730469 C 203.226562 92.359375 202.574219 92.050781 201.890625 91.800781 C 201.210938 91.554688 200.511719 91.375 199.796875 91.257812 C 199.082031 91.144531 198.363281 91.097656 197.636719 91.117188 C 196.914062 91.136719 196.199219 91.226562 195.488281 91.382812 C 194.78125 91.539062 194.097656 91.761719 193.429688 92.046875 C 193.355469 91.382812 193.226562 90.726562 193.039062 90.085938 C 192.851562 89.441406 192.609375 88.820312 192.316406 88.21875 C 192.019531 87.617188 191.675781 87.046875 191.285156 86.507812 C 190.890625 85.964844 190.453125 85.460938 189.976562 84.992188 C 189.496094 84.527344 188.980469 84.105469 188.425781 83.730469 C 187.875 83.351562 187.292969 83.023438 186.683594 82.746094 C 186.074219 82.472656 185.449219 82.25 184.800781 82.078125 C 184.152344 81.910156 183.496094 81.800781 182.828125 81.746094 C 182.164062 81.691406 181.496094 81.691406 180.832031 81.753906 C 180.164062 81.8125 179.507812 81.929688 178.863281 82.101562 C 178.21875 82.277344 177.589844 82.503906 176.984375 82.785156 C 176.378906 83.066406 175.800781 83.398438 175.25 83.78125 C 174.703125 84.164062 174.1875 84.589844 173.710938 85.058594 C 173.234375 85.527344 172.804688 86.035156 172.414062 86.582031 C 172.027344 87.125 171.6875 87.699219 171.398438 88.304688 C 171.109375 88.90625 170.871094 89.53125 170.691406 90.175781 C 169.964844 89.828125 169.210938 89.554688 168.429688 89.359375 C 167.648438 89.164062 166.855469 89.050781 166.050781 89.019531 C 165.246094 88.984375 164.445312 89.03125 163.652344 89.160156 C 162.859375 89.289062 162.085938 89.496094 161.332031 89.785156 C 160.578125 90.070312 159.863281 90.429688 159.183594 90.859375 C 158.503906 91.292969 157.875 91.789062 157.292969 92.347656 C 156.714844 92.90625 156.199219 93.519531 155.742188 94.183594 C 155.289062 94.851562 154.90625 95.554688 154.59375 96.296875 C 150.917969 95.441406 147.191406 95.058594 143.417969 95.152344 L 135.664062 95.394531 C 134.09375 95.386719 132.53125 95.230469 130.988281 94.9375 C 129.441406 94.640625 127.9375 94.207031 126.472656 93.632812 C 125.007812 93.0625 123.605469 92.359375 122.269531 91.53125 C 120.929688 90.703125 119.679688 89.757812 118.515625 88.699219 L 121.851562 83.871094 C 122.105469 83.5 122.285156 83.089844 122.378906 82.648438 C 122.472656 82.207031 122.480469 81.765625 122.398438 81.320312 C 122.320312 80.875 122.15625 80.460938 121.910156 80.082031 C 121.667969 79.703125 121.359375 79.382812 120.988281 79.125 L 98.332031 63.441406 C 97.960938 63.1875 97.554688 63.011719 97.113281 62.917969 C 96.671875 62.824219 96.230469 62.816406 95.785156 62.898438 C 95.34375 62.980469 94.933594 63.144531 94.554688 63.390625 C 94.175781 63.632812 93.859375 63.941406 93.601562 64.3125 C 93.34375 64.683594 93.167969 65.089844 93.074219 65.53125 C 92.980469 65.972656 92.972656 66.417969 93.050781 66.859375 C 93.132812 67.304688 93.292969 67.714844 93.535156 68.097656 C 93.78125 68.476562 94.085938 68.792969 94.457031 69.050781 L 114.3125 82.796875 L 86.4375 123.15625 L 66.582031 109.410156 C 66.210938 109.152344 65.804688 108.976562 65.363281 108.878906 C 64.921875 108.785156 64.480469 108.777344 64.035156 108.859375 C 63.589844 108.941406 63.179688 109.105469 62.800781 109.347656 C 62.417969 109.59375 62.101562 109.902344 61.84375 110.273438 C 61.585938 110.648438 61.410156 111.054688 61.316406 111.496094 C 61.222656 111.9375 61.214844 112.382812 61.292969 112.828125 C 61.375 113.273438 61.539062 113.683594 61.785156 114.0625 C 62.027344 114.445312 62.335938 114.761719 62.707031 115.019531 L 85.363281 130.703125 C 89.191406 133.222656 91.308594 127.765625 93.125 125.460938 C 95.144531 127.144531 100.21875 129.285156 100.445312 132.226562 L 108.816406 187.097656 C 108.851562 187.328125 108.910156 187.550781 108.992188 187.769531 C 109.074219 187.988281 109.179688 188.195312 109.300781 188.390625 C 109.425781 188.585938 109.570312 188.769531 109.730469 188.9375 C 109.890625 189.105469 110.066406 189.253906 110.257812 189.386719 C 110.449219 189.515625 110.652344 189.628906 110.867188 189.71875 C 111.082031 189.808594 111.300781 189.875 111.53125 189.921875 C 111.757812 189.96875 111.988281 189.988281 112.21875 189.988281 C 112.453125 189.988281 112.679688 189.960938 112.910156 189.914062 C 114.117188 189.726562 115.292969 189.433594 116.445312 189.027344 C 117.597656 188.621094 118.703125 188.113281 119.757812 187.5 C 120.816406 186.890625 121.808594 186.183594 122.734375 185.386719 C 123.660156 184.589844 124.503906 183.714844 125.265625 182.761719 C 126.027344 181.804688 126.695312 180.789062 127.269531 179.710938 C 127.839844 178.628906 128.308594 177.507812 128.671875 176.339844 C 129.035156 175.175781 129.289062 173.984375 129.429688 172.769531 C 129.574219 171.554688 129.601562 170.339844 129.515625 169.121094 L 129.089844 163.300781 L 156.050781 181.972656 C 158.824219 184.984375 164.835938 188.960938 164.445312 191.855469 L 164.445312 198.445312 L 159.128906 198.445312 C 158.675781 198.445312 158.242188 198.53125 157.824219 198.703125 C 157.40625 198.878906 157.039062 199.125 156.71875 199.445312 C 156.402344 199.761719 156.15625 200.132812 155.980469 200.550781 C 155.808594 200.96875 155.722656 201.402344 155.722656 201.855469 L 155.722656 229.429688 C 155.730469 229.875 155.824219 230.304688 156 230.714844 C 156.179688 231.121094 156.425781 231.484375 156.746094 231.796875 C 157.0625 232.109375 157.429688 232.347656 157.839844 232.515625 C 158.253906 232.6875 158.683594 232.769531 159.128906 232.769531 C 159.574219 232.769531 160.003906 232.683594 160.414062 232.515625 C 160.828125 232.347656 161.195312 232.109375 161.511719 231.796875 C 161.828125 231.484375 162.078125 231.121094 162.253906 230.714844 C 162.429688 230.304688 162.523438 229.875 162.535156 229.429688 L 162.535156 205.265625 L 211.546875 205.265625 L 211.546875 229.429688 C 211.554688 229.875 211.648438 230.304688 211.824219 230.714844 C 212.003906 231.121094 212.25 231.484375 212.570312 231.792969 C 212.886719 232.105469 213.253906 232.347656 213.664062 232.515625 C 214.078125 232.683594 214.507812 232.769531 214.953125 232.769531 C 215.398438 232.769531 215.824219 232.683594 216.238281 232.515625 C 216.652344 232.347656 217.015625 232.105469 217.335938 231.792969 C 217.652344 231.484375 217.898438 231.121094 218.078125 230.710938 C 218.253906 230.304688 218.347656 229.875 218.355469 229.429688 L 218.355469 201.855469 C 218.230469 197.089844 212.085938 198.707031 209.082031 198.445312 C 208.800781 195.828125 208.882812 193.21875 209.324219 190.625 C 209.761719 188.03125 210.546875 185.542969 211.675781 183.164062 L 245.390625 159.828125 L 244.964844 165.636719 C 244.921875 166.257812 244.910156 166.882812 244.929688 167.507812 C 244.945312 168.132812 244.992188 168.753906 245.070312 169.375 C 245.144531 169.992188 245.25 170.609375 245.386719 171.21875 C 245.519531 171.828125 245.683594 172.429688 245.875 173.023438 C 246.070312 173.621094 246.289062 174.203125 246.535156 174.777344 C 246.785156 175.351562 247.058594 175.910156 247.359375 176.457031 C 247.660156 177.003906 247.984375 177.539062 248.335938 178.054688 C 248.6875 178.570312 249.0625 179.066406 249.460938 179.550781 C 249.859375 180.03125 250.28125 180.488281 250.722656 180.929688 C 251.167969 181.371094 251.628906 181.789062 252.109375 182.1875 C 252.59375 182.582031 253.09375 182.953125 253.609375 183.304688 C 254.128906 183.652344 254.660156 183.976562 255.210938 184.273438 C 255.757812 184.570312 256.320312 184.84375 256.894531 185.089844 C 257.46875 185.332031 258.050781 185.550781 258.648438 185.738281 C 259.242188 185.925781 259.84375 186.085938 260.453125 186.21875 C 261.0625 186.351562 261.679688 186.453125 262.300781 186.527344 C 262.707031 186.523438 263.097656 186.453125 263.480469 186.308594 C 263.859375 186.167969 264.207031 185.964844 264.511719 185.699219 C 264.820312 185.433594 265.074219 185.125 265.273438 184.769531 C 265.46875 184.414062 265.601562 184.035156 265.664062 183.632812 L 274.035156 128.765625 C 274.257812 125.84375 279.4375 123.589844 281.351562 121.972656 C 283.113281 124.238281 285.324219 129.753906 289.117188 127.222656 L 311.773438 111.539062 C 312.132812 111.277344 312.429688 110.957031 312.667969 110.578125 C 312.902344 110.199219 313.058594 109.792969 313.132812 109.351562 C 313.207031 108.914062 313.195312 108.476562 313.101562 108.039062 C 313.003906 107.605469 312.828125 107.203125 312.574219 106.835938 C 312.324219 106.46875 312.007812 106.164062 311.636719 105.921875 C 311.265625 105.675781 310.859375 105.511719 310.421875 105.425781 C 309.984375 105.34375 309.546875 105.34375 309.109375 105.429688 C 308.671875 105.515625 308.269531 105.683594 307.898438 105.929688 Z M 123.480469 153.480469 C 122.910156 153.808594 122.472656 154.261719 122.164062 154.839844 C 121.855469 155.417969 121.726562 156.035156 121.773438 156.691406 L 122.726562 169.628906 C 122.773438 170.289062 122.769531 170.949219 122.714844 171.609375 C 122.660156 172.269531 122.554688 172.921875 122.398438 173.5625 C 122.242188 174.207031 122.039062 174.832031 121.785156 175.445312 C 121.527344 176.054688 121.230469 176.640625 120.882812 177.207031 C 120.539062 177.769531 120.148438 178.304688 119.722656 178.804688 C 119.292969 179.308594 118.824219 179.777344 118.324219 180.207031 C 117.820312 180.636719 117.289062 181.027344 116.726562 181.375 C 116.164062 181.722656 115.578125 182.023438 114.96875 182.277344 L 107.175781 131.191406 C 106.9375 129.648438 106.402344 128.210938 105.574219 126.890625 C 104.746094 125.566406 103.6875 124.460938 102.398438 123.574219 L 97 119.851562 L 114.644531 94.304688 C 116.101562 95.578125 117.664062 96.710938 119.324219 97.699219 C 120.988281 98.6875 122.726562 99.523438 124.539062 100.195312 C 126.355469 100.871094 128.214844 101.378906 130.117188 101.71875 C 132.023438 102.054688 133.941406 102.222656 135.878906 102.210938 L 143.613281 101.96875 C 147.0625 101.886719 150.457031 102.277344 153.792969 103.140625 L 153.792969 147.289062 L 149.269531 143.636719 C 148.363281 142.90625 147.398438 142.265625 146.375 141.710938 C 145.351562 141.15625 144.289062 140.695312 143.183594 140.332031 C 142.082031 139.964844 140.953125 139.703125 139.800781 139.539062 C 138.648438 139.375 137.492188 139.3125 136.332031 139.355469 C 135.167969 139.398438 134.019531 139.542969 132.882812 139.789062 C 131.746094 140.039062 130.640625 140.382812 129.566406 140.828125 C 128.492188 141.273438 127.464844 141.808594 126.484375 142.4375 C 125.507812 143.066406 124.589844 143.777344 123.738281 144.566406 C 123.480469 144.699219 123.242188 144.859375 123.019531 145.050781 C 122.800781 145.238281 122.605469 145.449219 122.433594 145.683594 C 122.261719 145.917969 122.121094 146.167969 122.007812 146.433594 C 121.894531 146.703125 121.8125 146.980469 121.761719 147.265625 C 121.714844 147.550781 121.699219 147.839844 121.714844 148.128906 C 121.734375 148.417969 121.785156 148.699219 121.867188 148.980469 C 121.949219 149.257812 122.066406 149.519531 122.210938 149.773438 C 122.355469 150.023438 122.527344 150.253906 122.722656 150.46875 L 125.476562 153.066406 C 124.765625 152.996094 124.101562 153.136719 123.480469 153.480469 Z M 171.253906 198.445312 C 171.3125 193.535156 171.894531 187.09375 167.703125 183.609375 L 130.1875 148.144531 C 130.746094 147.789062 131.328125 147.480469 131.933594 147.214844 C 132.539062 146.949219 133.160156 146.734375 133.800781 146.566406 C 134.4375 146.398438 135.085938 146.28125 135.742188 146.214844 C 136.402344 146.144531 137.058594 146.128906 137.71875 146.167969 C 138.378906 146.203125 139.03125 146.289062 139.675781 146.425781 C 140.324219 146.5625 140.957031 146.75 141.574219 146.984375 C 142.191406 147.222656 142.785156 147.503906 143.359375 147.832031 C 143.933594 148.160156 144.476562 148.53125 144.992188 148.945312 L 155.058594 157.078125 C 155.574219 157.480469 156.152344 157.714844 156.800781 157.785156 C 157.449219 157.855469 158.066406 157.75 158.652344 157.46875 C 159.242188 157.1875 159.710938 156.773438 160.0625 156.222656 C 160.414062 155.675781 160.59375 155.074219 160.605469 154.421875 L 160.605469 100.40625 C 160.648438 99.792969 160.804688 99.207031 161.070312 98.652344 C 161.339844 98.097656 161.695312 97.609375 162.148438 97.191406 C 162.597656 96.773438 163.109375 96.449219 163.679688 96.226562 C 164.253906 96 164.847656 95.886719 165.460938 95.886719 C 166.078125 95.886719 166.671875 96 167.242188 96.226562 C 167.816406 96.449219 168.328125 96.773438 168.777344 97.191406 C 169.226562 97.609375 169.585938 98.097656 169.851562 98.652344 C 170.117188 99.207031 170.273438 99.792969 170.320312 100.40625 L 170.320312 130.707031 C 170.320312 131.160156 170.40625 131.59375 170.578125 132.011719 C 170.75 132.429688 170.996094 132.800781 171.316406 133.117188 C 171.636719 133.4375 172.003906 133.683594 172.421875 133.859375 C 172.839844 134.03125 173.273438 134.117188 173.726562 134.117188 C 174.175781 134.117188 174.609375 134.03125 175.027344 133.859375 C 175.445312 133.683594 175.8125 133.4375 176.132812 133.117188 C 176.453125 132.800781 176.699219 132.429688 176.871094 132.011719 C 177.042969 131.59375 177.128906 131.160156 177.128906 130.707031 L 177.128906 93.054688 C 177.148438 92.753906 177.195312 92.457031 177.269531 92.164062 C 177.34375 91.871094 177.445312 91.589844 177.570312 91.316406 C 177.699219 91.042969 177.851562 90.78125 178.027344 90.539062 C 178.203125 90.292969 178.402344 90.066406 178.621094 89.859375 C 178.84375 89.652344 179.078125 89.46875 179.332031 89.304688 C 179.589844 89.144531 179.855469 89.007812 180.136719 88.894531 C 180.414062 88.785156 180.703125 88.699219 181 88.644531 C 181.296875 88.585938 181.59375 88.558594 181.898438 88.558594 C 182.199219 88.558594 182.496094 88.585938 182.792969 88.644531 C 183.089844 88.699219 183.378906 88.785156 183.660156 88.894531 C 183.9375 89.007812 184.207031 89.144531 184.460938 89.304688 C 184.714844 89.46875 184.953125 89.652344 185.171875 89.859375 C 185.390625 90.066406 185.589844 90.292969 185.765625 90.539062 C 185.941406 90.78125 186.09375 91.042969 186.222656 91.316406 C 186.351562 91.589844 186.453125 91.871094 186.527344 92.164062 C 186.601562 92.457031 186.644531 92.753906 186.664062 93.054688 L 186.664062 130.15625 C 186.664062 130.609375 186.75 131.042969 186.921875 131.460938 C 187.097656 131.878906 187.34375 132.25 187.660156 132.566406 C 187.980469 132.886719 188.347656 133.132812 188.765625 133.308594 C 189.183594 133.480469 189.617188 133.566406 190.070312 133.566406 C 190.519531 133.566406 190.957031 133.480469 191.371094 133.308594 C 191.789062 133.132812 192.15625 132.886719 192.476562 132.566406 C 192.796875 132.25 193.042969 131.878906 193.214844 131.460938 C 193.386719 131.042969 193.476562 130.609375 193.476562 130.15625 L 193.476562 102.429688 C 193.484375 102.136719 193.519531 101.84375 193.585938 101.554688 C 193.648438 101.265625 193.742188 100.984375 193.859375 100.714844 C 193.976562 100.441406 194.121094 100.1875 194.289062 99.941406 C 194.460938 99.699219 194.648438 99.476562 194.859375 99.269531 C 195.074219 99.0625 195.304688 98.878906 195.550781 98.714844 C 195.796875 98.554688 196.058594 98.417969 196.332031 98.304688 C 196.605469 98.195312 196.886719 98.109375 197.179688 98.054688 C 197.46875 97.996094 197.761719 97.96875 198.058594 97.96875 C 198.351562 97.96875 198.644531 97.996094 198.9375 98.054688 C 199.226562 98.109375 199.507812 98.195312 199.78125 98.304688 C 200.054688 98.417969 200.316406 98.554688 200.5625 98.714844 C 200.8125 98.878906 201.042969 99.0625 201.253906 99.269531 C 201.464844 99.476562 201.65625 99.699219 201.824219 99.941406 C 201.992188 100.1875 202.136719 100.441406 202.253906 100.714844 C 202.375 100.984375 202.464844 101.265625 202.53125 101.554688 C 202.59375 101.84375 202.632812 102.136719 202.640625 102.429688 L 202.640625 137.507812 C 202.648438 137.953125 202.742188 138.382812 202.917969 138.792969 C 203.09375 139.203125 203.34375 139.5625 203.660156 139.875 C 203.980469 140.1875 204.34375 140.429688 204.757812 140.597656 C 205.171875 140.765625 205.601562 140.851562 206.046875 140.851562 C 206.492188 140.851562 206.921875 140.765625 207.332031 140.597656 C 207.746094 140.429688 208.109375 140.1875 208.429688 139.875 C 208.746094 139.5625 208.996094 139.203125 209.171875 138.792969 C 209.347656 138.382812 209.441406 137.953125 209.449219 137.507812 L 209.449219 116.921875 C 209.457031 116.59375 209.492188 116.265625 209.5625 115.945312 C 209.628906 115.625 209.726562 115.3125 209.855469 115.011719 C 209.984375 114.710938 210.140625 114.425781 210.328125 114.152344 C 210.511719 113.882812 210.722656 113.632812 210.953125 113.402344 C 211.1875 113.171875 211.441406 112.964844 211.714844 112.785156 C 211.988281 112.605469 212.277344 112.449219 212.582031 112.328125 C 212.882812 112.203125 213.195312 112.109375 213.519531 112.042969 C 213.839844 111.980469 214.164062 111.949219 214.492188 111.949219 C 214.820312 111.949219 215.144531 111.980469 215.464844 112.042969 C 215.789062 112.109375 216.101562 112.203125 216.402344 112.328125 C 216.707031 112.449219 216.996094 112.605469 217.269531 112.785156 C 217.542969 112.964844 217.796875 113.171875 218.03125 113.402344 C 218.265625 113.632812 218.472656 113.882812 218.65625 114.152344 C 218.84375 114.425781 219 114.710938 219.128906 115.011719 C 219.257812 115.3125 219.355469 115.625 219.425781 115.945312 C 219.492188 116.265625 219.527344 116.59375 219.535156 116.921875 L 219.535156 148.746094 C 219.523438 152.609375 218.914062 156.378906 217.707031 160.050781 C 216.496094 163.71875 214.75 167.113281 212.460938 170.226562 C 210.191406 173.121094 208.078125 176.128906 206.121094 179.238281 C 204.542969 182.179688 203.425781 185.285156 202.769531 188.554688 C 202.113281 191.828125 201.949219 195.125 202.273438 198.445312 Z M 272.089844 120.101562 C 270.800781 120.988281 269.742188 122.09375 268.910156 123.421875 C 268.078125 124.746094 267.542969 126.183594 267.304688 127.730469 L 259.511719 178.796875 C 258.902344 178.539062 258.316406 178.238281 257.757812 177.890625 C 257.195312 177.539062 256.664062 177.152344 256.164062 176.71875 C 255.660156 176.289062 255.195312 175.820312 254.769531 175.316406 C 254.339844 174.816406 253.953125 174.28125 253.605469 173.71875 C 253.261719 173.152344 252.960938 172.566406 252.707031 171.957031 C 252.453125 171.34375 252.246094 170.71875 252.089844 170.078125 C 251.933594 169.433594 251.828125 168.785156 251.769531 168.125 C 251.714844 167.464844 251.710938 166.804688 251.757812 166.144531 L 252.707031 153.222656 C 252.753906 152.570312 252.625 151.953125 252.316406 151.371094 C 252.007812 150.792969 251.570312 150.339844 251 150.015625 C 250.433594 149.6875 249.820312 149.539062 249.164062 149.566406 C 248.511719 149.59375 247.914062 149.796875 247.375 150.167969 L 221.832031 167.847656 C 223.304688 164.878906 224.421875 161.78125 225.183594 158.554688 C 225.949219 155.328125 226.335938 152.058594 226.34375 148.746094 L 226.34375 116.921875 C 226.339844 116.425781 226.304688 115.929688 226.238281 115.4375 C 226.171875 114.949219 226.078125 114.460938 225.949219 113.980469 C 225.824219 113.503906 225.667969 113.03125 225.484375 112.574219 C 225.296875 112.113281 225.085938 111.667969 224.84375 111.234375 C 224.605469 110.800781 224.339844 110.382812 224.046875 109.980469 C 223.753906 109.582031 223.4375 109.199219 223.097656 108.839844 C 222.757812 108.480469 222.394531 108.140625 222.015625 107.824219 C 221.632812 107.507812 221.230469 107.21875 220.8125 106.953125 C 220.394531 106.6875 219.960938 106.449219 219.515625 106.238281 C 219.066406 106.023438 218.605469 105.84375 218.136719 105.6875 C 217.664062 105.53125 217.1875 105.410156 216.699219 105.3125 C 216.214844 105.21875 215.722656 105.15625 215.230469 105.121094 C 214.734375 105.085938 214.242188 105.085938 213.746094 105.113281 C 213.253906 105.140625 212.761719 105.199219 212.273438 105.289062 C 211.785156 105.378906 211.308594 105.5 210.835938 105.648438 C 210.363281 105.796875 209.902344 105.976562 209.449219 106.183594 L 209.449219 104.714844 C 212.589844 102.554688 215.992188 100.945312 219.648438 99.878906 C 223.308594 98.816406 227.039062 98.355469 230.847656 98.496094 C 239.25 99.128906 248.628906 98.992188 255.710938 93.714844 L 259.84375 90.832031 L 277.476562 116.367188 Z M 272.089844 120.101562 " fill-opacity="1" fill-rule="nonzero"/></g></svg>