<svg xmlns="http://www.w3.org/2000/svg" xmlns:xlink="http://www.w3.org/1999/xlink" width="500" zoomAndPan="magnify" viewBox="0 0 375 374.999991" height="500" preserveAspectRatio="xMidYMid meet" version="1.0"><defs><clipPath id="ea632bb466"><path d="M 129 41 L 246 41 L 246 218.25 L 129 218.25 Z M 129 41 " clip-rule="nonzero"/></clipPath><clipPath id="72d6bf3a7b"><path d="M 96.671875 64 L 123 64 L 123 78 L 96.671875 78 Z M 96.671875 64 " clip-rule="nonzero"/></clipPath><clipPath id="15b58f9dc9"><path d="M 253 113 L 278.171875 113 L 278.171875 126 L 253 126 Z M 253 113 " clip-rule="nonzero"/></clipPath><clipPath id="913d9cf109"><path d="M 96.671875 113 L 122 113 L 122 126 L 96.671875 126 Z M 96.671875 113 " clip-rule="nonzero"/></clipPath></defs><g clip-path="url(#ea632bb466)"><path fill="#000000" d="M 187.703125 42.015625 C 182.898438 42.015625 178.105469 42.183594 173.425781 43.472656 C 172.417969 43.734375 171.417969 44.027344 170.421875 44.347656 C 169.429688 44.664062 168.445312 45.011719 167.46875 45.382812 C 166.496094 45.753906 165.53125 46.148438 164.574219 46.570312 C 163.621094 46.996094 162.679688 47.441406 161.75 47.914062 C 160.816406 48.386719 159.902344 48.882812 158.996094 49.40625 C 158.09375 49.925781 157.203125 50.472656 156.328125 51.039062 C 155.453125 51.609375 154.59375 52.199219 153.75 52.816406 C 152.902344 53.429688 152.078125 54.066406 151.265625 54.722656 C 150.457031 55.382812 149.664062 56.0625 148.890625 56.761719 C 148.113281 57.464844 147.359375 58.183594 146.625 58.925781 C 145.886719 59.664062 145.171875 60.425781 144.472656 61.203125 C 143.777344 61.984375 143.101562 62.78125 142.449219 63.59375 C 141.796875 64.410156 141.164062 65.242188 140.554688 66.089844 C 139.945312 66.9375 139.355469 67.800781 138.792969 68.679688 C 138.230469 69.558594 137.6875 70.453125 137.171875 71.363281 C 136.65625 72.269531 136.160156 73.191406 135.695312 74.128906 C 135.226562 75.0625 134.78125 76.007812 134.363281 76.964844 C 133.945312 77.925781 133.554688 78.894531 133.1875 79.871094 C 132.820312 80.851562 132.480469 81.839844 132.164062 82.835938 C 131.851562 83.832031 131.5625 84.835938 131.300781 85.851562 C 131.039062 86.863281 130.804688 87.882812 130.597656 88.90625 C 130.390625 89.929688 130.210938 90.960938 130.058594 91.996094 C 129.90625 93.03125 129.78125 94.066406 129.683594 95.109375 C 129.585938 96.148438 129.515625 97.191406 129.472656 98.238281 C 129.429688 99.28125 129.414062 100.328125 129.425781 101.375 C 129.4375 102.417969 129.480469 103.464844 129.546875 104.507812 C 129.613281 105.550781 129.710938 106.589844 129.832031 107.628906 C 129.957031 108.667969 130.105469 109.703125 130.285156 110.734375 C 130.460938 111.765625 130.667969 112.789062 130.898438 113.808594 C 131.132812 114.828125 131.390625 115.839844 131.675781 116.847656 C 131.960938 117.851562 132.273438 118.851562 132.609375 119.839844 C 132.949219 120.828125 133.3125 121.808594 133.703125 122.777344 C 137.519531 132.425781 144.085938 140.027344 150.644531 147.734375 C 155.820312 153.8125 159.199219 160.691406 158.117188 168.890625 C 157.183594 175.984375 157.734375 183.058594 157.605469 190.140625 C 157.539062 193.652344 158.039062 197.789062 161.578125 198.902344 C 165.589844 200.164062 166.3125 203.09375 167.683594 206.054688 C 168.332031 207.429688 169.136719 208.707031 170.097656 209.886719 C 180.902344 223.277344 201.140625 219.890625 207.480469 203.667969 C 207.949219 202.46875 207.710938 200.660156 209.414062 200.3125 C 216.214844 198.914062 217.6875 194.152344 217.390625 188.097656 C 217.058594 181.410156 217.339844 174.726562 216.914062 168.011719 C 216.355469 159.289062 220.167969 151.835938 226.253906 145.582031 C 238.636719 132.847656 245.519531 118.066406 245.691406 99.78125 C 245.953125 72.621094 221.648438 40.671875 187.703125 42.015625 Z M 200.757812 202.441406 C 197.914062 207.691406 193.773438 210.910156 187.652344 211.222656 C 181.179688 211.550781 176.59375 208.546875 173.398438 203.117188 C 172.265625 201.191406 172.105469 199.902344 175.109375 200.042969 C 179.132812 200.214844 183.171875 200.085938 187.203125 200.085938 C 191.234375 200.085938 195.273438 200.152344 199.304688 200.085938 C 201.378906 200 201.75 200.632812 200.769531 202.441406 Z M 207.332031 193.753906 C 200.648438 193.644531 193.953125 193.753906 187.261719 193.753906 C 180.824219 193.753906 174.382812 193.59375 167.953125 193.8125 C 164.363281 193.929688 164.328125 191.964844 164.152344 189.28125 C 163.964844 186.339844 165.277344 186.046875 167.683594 186.097656 C 174.210938 186.238281 180.808594 186.148438 187.371094 186.148438 C 194.0625 186.148438 200.757812 186.230469 207.441406 186.097656 C 209.769531 186.054688 210.910156 186.511719 210.675781 189.167969 C 210.515625 191.484375 210.886719 193.8125 207.347656 193.753906 Z M 207.980469 179.808594 C 194.332031 179.648438 180.691406 179.75 167.046875 179.808594 C 164.023438 179.808594 164.269531 177.628906 164.21875 175.746094 C 164.152344 173.332031 164.738281 172.257812 167.285156 172.320312 C 173.976562 172.496094 180.679688 172.378906 187.371094 172.378906 C 194.195312 172.378906 201.023438 172.546875 207.839844 172.300781 C 210.84375 172.191406 210.742188 173.753906 210.648438 175.78125 C 210.515625 177.605469 211.511719 179.847656 207.992188 179.808594 Z M 179.183594 129.605469 C 178.734375 126.890625 179.125 126.449219 181.722656 126.421875 C 183.738281 126.421875 193.953125 125.480469 195.449219 126.988281 C 196.601562 128.148438 195.019531 132.074219 194.652344 134.765625 C 193.289062 144.515625 190.648438 154.058594 190.402344 163.992188 C 190.359375 165.886719 188.574219 165.917969 186.6875 165.867188 C 185.703125 165.828125 183.789062 165.828125 183.867188 164.070312 C 184.484375 152.277344 181.105469 141.039062 179.199219 129.605469 Z M 238.523438 100.773438 C 238.984375 115.152344 233.84375 127.453125 224.113281 137.847656 C 218.085938 144.296875 212.824219 151.078125 210.828125 159.976562 C 210.410156 161.851562 211.71875 164.527344 209.597656 165.464844 C 207.898438 166.195312 205.621094 165.691406 203.597656 165.699219 C 196.21875 165.699219 195.710938 165.140625 197.074219 157.839844 C 199.972656 142.457031 202.925781 127.089844 205.773438 111.699219 C 206.085938 110.003906 206.761719 108.195312 205.773438 106.5 C 204.984375 105.183594 203.597656 105.433594 202.351562 105.46875 C 200.683594 105.511719 199.871094 106.558594 199.558594 108.054688 C 198.796875 111.117188 198.191406 114.210938 197.738281 117.332031 C 197.523438 119.410156 196.660156 119.804688 194.839844 119.773438 C 189.777344 119.691406 184.71875 119.691406 179.65625 119.773438 C 177.9375 119.773438 177.195312 119.296875 177 117.484375 C 176.726562 114.984375 176.050781 112.535156 175.609375 110.046875 C 175.167969 107.5625 174.542969 105.023438 171.257812 105.539062 C 167.972656 106.058594 168.402344 108.660156 168.820312 110.933594 C 170.933594 122.347656 173.261719 133.734375 175.21875 145.175781 C 176.210938 150.992188 178.210938 156.726562 177.167969 162.785156 C 177.101562 163.15625 177.253906 163.613281 177.089844 163.910156 C 175.769531 166.246094 172.890625 165.953125 169.335938 166.15625 C 168.089844 166.222656 165.183594 166.347656 164.90625 163.773438 C 163.921875 154.605469 159.554688 147 153.210938 140.507812 C 141.628906 128.652344 135.761719 114.554688 136.117188 97.804688 C 136.605469 74.839844 156.9375 52.421875 179.554688 49.003906 C 210.9375 44.285156 234.386719 67.839844 238.484375 93.183594 C 238.882812 95.648438 238.535156 98.21875 238.535156 100.773438 Z M 238.523438 100.773438 " fill-opacity="1" fill-rule="nonzero"/></g><path fill="#000000" d="M 187.652344 31.554688 C 189.886719 31.445312 190.867188 29.957031 190.828125 27.6875 C 190.773438 23.777344 190.828125 19.859375 190.828125 15.941406 C 190.828125 11.898438 190.792969 7.855469 190.828125 3.8125 C 190.828125 1.488281 189.582031 0.0625 187.480469 0.078125 C 185.375 0.0898438 184.058594 1.53125 184.050781 3.8125 C 184.050781 11.765625 184.050781 19.726562 184.050781 27.6875 C 184.050781 30.035156 185.136719 31.679688 187.652344 31.554688 Z M 187.652344 31.554688 " fill-opacity="1" fill-rule="nonzero"/><path fill="#000000" d="M 147.082031 44.597656 C 149.019531 43.054688 149.503906 41.269531 147.808594 39.050781 C 143.230469 33.023438 138.730469 26.917969 134.226562 20.832031 C 133.867188 20.300781 133.417969 19.859375 132.882812 19.507812 C 132.34375 19.15625 131.761719 18.921875 131.128906 18.804688 C 129.925781 19.167969 128.691406 19.53125 128.128906 20.847656 C 127.402344 22.527344 127.832031 24.015625 128.902344 25.433594 C 133.394531 31.371094 137.878906 37.324219 142.355469 43.296875 C 143.582031 44.933594 145.03125 46.226562 147.082031 44.597656 Z M 147.082031 44.597656 " fill-opacity="1" fill-rule="nonzero"/><path fill="#000000" d="M 244.554688 20.011719 C 242.625 19.195312 241.386719 20.242188 240.363281 21.558594 C 235.738281 27.527344 231.167969 33.539062 226.585938 39.550781 C 225.136719 41.433594 225.136719 43.449219 227.050781 44.875 C 228.964844 46.296875 230.820312 45.558594 232.269531 43.695312 C 236.730469 37.765625 241.226562 31.847656 245.664062 25.898438 C 246.175781 25.121094 246.625 24.3125 247.011719 23.464844 C 246.511719 21.886719 246.046875 20.628906 244.554688 20.011719 Z M 244.554688 20.011719 " fill-opacity="1" fill-rule="nonzero"/><g clip-path="url(#72d6bf3a7b)"><path fill="#000000" d="M 119.875 70.835938 C 113.792969 68.855469 107.679688 66.960938 101.609375 64.960938 C 99.433594 64.234375 97.703125 64.785156 96.941406 66.828125 C 96.078125 69.15625 97.375 70.675781 99.621094 71.410156 C 104.632812 73.039062 109.644531 74.679688 114.660156 76.28125 C 116.214844 76.773438 117.800781 77.144531 118.859375 77.4375 C 121.179688 77.4375 122.289062 76.652344 122.542969 74.839844 C 122.835938 72.726562 121.761719 71.453125 119.875 70.835938 Z M 119.875 70.835938 " fill-opacity="1" fill-rule="nonzero"/></g><path fill="#000000" d="M 256.25 77.660156 C 262.335938 75.691406 268.460938 73.851562 274.566406 71.960938 C 276.273438 71.4375 277.46875 70.507812 277.46875 68.160156 C 277.242188 65.78125 275.707031 64.523438 273.117188 65.308594 C 266.734375 67.179688 260.414062 69.242188 254.074219 71.242188 C 251.847656 71.96875 251.039062 73.632812 251.691406 75.675781 C 252.34375 77.71875 254.023438 78.386719 256.25 77.660156 Z M 256.25 77.660156 " fill-opacity="1" fill-rule="nonzero"/><g clip-path="url(#15b58f9dc9)"><path fill="#000000" d="M 275.378906 118.460938 C 269.308594 116.925781 263.21875 115.464844 257.136719 113.972656 C 255.140625 113.480469 253.960938 114.484375 253.378906 116.234375 C 252.71875 118.21875 253.480469 119.980469 255.394531 120.496094 C 261.683594 122.195312 268.042969 123.636719 274.609375 125.226562 C 275.003906 125.28125 275.394531 125.261719 275.777344 125.164062 C 276.164062 125.070312 276.515625 124.902344 276.839844 124.671875 C 277.160156 124.4375 277.425781 124.152344 277.636719 123.8125 C 277.847656 123.476562 277.984375 123.113281 278.054688 122.71875 C 278.578125 120.496094 277.535156 119.003906 275.378906 118.460938 Z M 275.378906 118.460938 " fill-opacity="1" fill-rule="nonzero"/></g><g clip-path="url(#913d9cf109)"><path fill="#000000" d="M 117.183594 113.609375 C 111.382812 115.203125 104.945312 116.867188 98.59375 118.773438 C 97.042969 119.238281 96.367188 120.84375 96.851562 122.515625 C 97.339844 124.1875 98.507812 125.488281 100.117188 125.105469 C 106.570312 123.578125 112.980469 121.855469 119.355469 120.015625 C 121.136719 119.5 121.601562 117.835938 121.121094 115.996094 C 120.644531 114.15625 119.511719 113.550781 117.183594 113.609375 Z M 117.183594 113.609375 " fill-opacity="1" fill-rule="nonzero"/></g></svg>